<svg width="167" height="25" viewBox="0 0 167 25" fill="none" xmlns="http://www.w3.org/2000/svg">
<path d="M6.26319 24H0.467188V0.599999H6.26319C8.13519 0.599999 9.55119 1.044 10.5112 1.932C11.4952 2.82 11.9872 4.056 11.9872 5.64V18.96C11.9872 20.568 11.5072 21.816 10.5472 22.704C9.58719 23.568 8.15919 24 6.26319 24ZM9.46719 18.96V5.64C9.46719 4.728 9.19119 4.02 8.63919 3.516C8.08719 3.012 7.29519 2.76 6.26319 2.76H2.98719V21.84H6.26319C8.39919 21.84 9.46719 20.88 9.46719 18.96ZM29.803 24H28.723L27.787 21.696C27.283 22.56 26.623 23.256 25.807 23.784C24.991 24.288 24.091 24.54 23.107 24.54C19.651 24.54 17.923 22.86 17.923 19.5V15.9C17.923 12.54 19.651 10.86 23.107 10.86H27.283V4.956C27.283 4.092 27.007 3.42 26.455 2.94C25.903 2.46 25.087 2.22 24.007 2.22C21.871 2.22 20.803 3.132 20.803 4.956V7.08H18.283V5.1C18.283 3.492 18.751 2.256 19.687 1.392C20.647 0.503999 22.087 0.0599992 24.007 0.0599992C25.927 0.0599992 27.367 0.503999 28.327 1.392C29.311 2.256 29.803 3.492 29.803 5.1V24ZM27.283 13.02H23.107C22.099 13.02 21.403 13.272 21.019 13.776C20.635 14.28 20.443 14.988 20.443 15.9V19.5C20.443 20.412 20.635 21.12 21.019 21.624C21.403 22.128 22.099 22.38 23.107 22.38C24.115 22.38 25.051 21.996 25.915 21.228C26.779 20.436 27.235 19.656 27.283 18.888V13.02ZM36.283 19.5V0.599999H38.803V19.5C38.803 20.412 38.995 21.12 39.379 21.624C39.787 22.128 40.519 22.38 41.575 22.38C42.631 22.38 43.603 21.972 44.491 21.156C45.379 20.34 45.823 19.548 45.823 18.78V0.599999H48.343V24H47.263L46.327 21.696C45.799 22.56 45.115 23.256 44.275 23.784C43.459 24.288 42.559 24.54 41.575 24.54C38.047 24.54 36.283 22.86 36.283 19.5ZM67.005 19.5C67.005 22.86 64.977 24.54 60.921 24.54C56.865 24.54 54.837 22.86 54.837 19.5V16.44H57.357V19.644C57.357 20.508 57.657 21.18 58.257 21.66C58.857 22.14 59.745 22.38 60.921 22.38C62.097 22.38 62.985 22.14 63.585 21.66C64.185 21.18 64.485 20.532 64.485 19.716C64.485 18.876 64.389 18.216 64.197 17.736C64.029 17.232 63.669 16.704 63.117 16.152L56.781 9.96C56.037 9.216 55.521 8.496 55.233 7.8C54.969 7.08 54.837 6.18 54.837 5.1C54.837 3.492 55.329 2.256 56.313 1.392C57.321 0.503999 58.833 0.0599992 60.849 0.0599992C64.713 0.0599992 66.645 1.74 66.645 5.1V8.16H64.125V4.956C64.125 4.092 63.837 3.42 63.261 2.94C62.709 2.46 61.869 2.22 60.741 2.22C59.613 2.22 58.761 2.46 58.185 2.94C57.633 3.42 57.357 4.08 57.357 4.92C57.357 5.76 57.441 6.42 57.609 6.9C57.777 7.38 58.149 7.884 58.725 8.412L65.169 14.604C65.865 15.372 66.345 16.116 66.609 16.836C66.873 17.532 67.005 18.42 67.005 19.5ZM76.0067 24H73.4867V0.599999H76.0067V11.04H83.0987V0.599999H85.6187V24H83.0987V13.2H76.0067V24ZM101.643 19.5V17.52H104.163V19.5C104.163 21.108 103.671 22.356 102.687 23.244C101.703 24.108 100.227 24.54 98.2587 24.54C96.2907 24.54 94.8027 24.108 93.7947 23.244C92.7867 22.356 92.2827 21.108 92.2827 19.5V5.1C92.2827 3.492 92.7747 2.256 93.7587 1.392C94.7427 0.503999 96.2187 0.0599992 98.1867 0.0599992C100.155 0.0599992 101.643 0.503999 102.651 1.392C103.659 2.256 104.163 3.492 104.163 5.1V8.52H101.643V5.1C101.643 3.18 100.503 2.22 98.2227 2.22C95.9427 2.22 94.8027 3.18 94.8027 5.1V19.5C94.8027 21.42 95.9427 22.38 98.2227 22.38C100.503 22.38 101.643 21.42 101.643 19.5ZM121.631 24H120.551L119.615 21.696C119.111 22.56 118.451 23.256 117.635 23.784C116.819 24.288 115.919 24.54 114.935 24.54C111.479 24.54 109.751 22.86 109.751 19.5V15.9C109.751 12.54 111.479 10.86 114.935 10.86H119.111V4.956C119.111 4.092 118.835 3.42 118.283 2.94C117.731 2.46 116.915 2.22 115.835 2.22C113.699 2.22 112.631 3.132 112.631 4.956V7.08H110.111V5.1C110.111 3.492 110.579 2.256 111.515 1.392C112.475 0.503999 113.915 0.0599992 115.835 0.0599992C117.755 0.0599992 119.195 0.503999 120.155 1.392C121.139 2.256 121.631 3.492 121.631 5.1V24ZM119.111 13.02H114.935C113.927 13.02 113.231 13.272 112.847 13.776C112.463 14.28 112.271 14.988 112.271 15.9V19.5C112.271 20.412 112.463 21.12 112.847 21.624C113.231 22.128 113.927 22.38 114.935 22.38C115.943 22.38 116.879 21.996 117.743 21.228C118.607 20.436 119.063 19.656 119.111 18.888V13.02ZM130.991 24H128.471V0.599999H129.551L130.451 2.904C130.955 2.04 131.615 1.356 132.431 0.852C133.247 0.323999 134.135 0.0599992 135.095 0.0599992C137.519 0.0599992 139.067 0.935999 139.739 2.688C140.891 0.935999 142.403 0.0599992 144.275 0.0599992C147.659 0.0599992 149.351 1.74 149.351 5.1V24H146.831V5.1C146.831 3.18 145.967 2.22 144.239 2.22C143.231 2.22 142.295 2.628 141.431 3.444C140.591 4.26 140.171 5.052 140.171 5.82V24H137.651V5.1C137.651 3.18 136.787 2.22 135.059 2.22C134.051 2.22 133.115 2.616 132.251 3.408C131.411 4.176 130.991 4.944 130.991 5.712V24ZM158.334 24H155.814V0.599999H161.25C163.122 0.599999 164.538 1.044 165.498 1.932C166.482 2.82 166.974 4.056 166.974 5.64V11.76C166.974 13.368 166.494 14.616 165.534 15.504C164.574 16.368 163.146 16.8 161.25 16.8H158.334V24ZM164.454 11.76V5.64C164.454 4.728 164.178 4.02 163.626 3.516C163.074 3.012 162.282 2.76 161.25 2.76H158.334V14.64H161.25C163.386 14.64 164.454 13.68 164.454 11.76Z" fill="#C0C0C0"/>
</svg>
