<svg width="27" height="32" viewBox="0 0 27 32" fill="none" xmlns="http://www.w3.org/2000/svg">
<path d="M16.2143 5.12C16.2143 7.66946 14.1377 9.74 11.5714 9.74C9.00516 9.74 6.92859 7.66946 6.92859 5.12C6.92859 2.57054 9.00516 0.5 11.5714 0.5C14.1377 0.5 16.2143 2.57054 16.2143 5.12Z" fill="#D3D3D3" stroke="white"/>
<path d="M25.2143 19.2C25.2143 25.991 19.6839 31.5 12.8571 31.5C6.03038 31.5 0.5 25.991 0.5 19.2C0.5 12.409 6.03038 6.90002 12.8571 6.90002C19.6839 6.90002 25.2143 12.409 25.2143 19.2Z" stroke="black"/>
<path d="M12.3557 20.7913C12.2626 21.7773 11.8987 22.5474 11.2639 23.1018C10.6292 23.6519 9.78491 23.927 8.7312 23.927C7.99487 23.927 7.3453 23.7535 6.78247 23.4065C6.22388 23.0553 5.79224 22.558 5.48755 21.9148C5.18286 21.2716 5.02417 20.5247 5.01147 19.6741V18.8108C5.01147 17.939 5.16593 17.171 5.47485 16.5066C5.78377 15.8422 6.22599 15.3302 6.80151 14.9705C7.38127 14.6108 8.04989 14.4309 8.80737 14.4309C9.82723 14.4309 10.6482 14.7081 11.2703 15.2625C11.8923 15.8168 12.2542 16.5997 12.3557 17.6111H10.7561C10.6799 16.9467 10.4853 16.4685 10.1721 16.1765C9.8632 15.8803 9.40828 15.7322 8.80737 15.7322C8.10913 15.7322 7.5717 15.9882 7.19507 16.5002C6.82267 17.0081 6.63224 17.755 6.62378 18.741V19.5598C6.62378 20.5585 6.80151 21.3202 7.15698 21.845C7.51668 22.3697 8.04142 22.6321 8.7312 22.6321C9.36174 22.6321 9.83569 22.4903 10.1531 22.2068C10.4705 21.9233 10.6715 21.4514 10.7561 20.7913H12.3557ZM20.8489 20.7913C20.7558 21.7773 20.3918 22.5474 19.7571 23.1018C19.1223 23.6519 18.2781 23.927 17.2244 23.927C16.488 23.927 15.8385 23.7535 15.2756 23.4065C14.717 23.0553 14.2854 22.558 13.9807 21.9148C13.676 21.2716 13.5173 20.5247 13.5046 19.6741V18.8108C13.5046 17.939 13.6591 17.171 13.968 16.5066C14.2769 15.8422 14.7192 15.3302 15.2947 14.9705C15.8744 14.6108 16.5431 14.4309 17.3005 14.4309C18.3204 14.4309 19.1414 14.7081 19.7634 15.2625C20.3855 15.8168 20.7473 16.5997 20.8489 17.6111H19.2493C19.1731 16.9467 18.9784 16.4685 18.6653 16.1765C18.3564 15.8803 17.9014 15.7322 17.3005 15.7322C16.6023 15.7322 16.0649 15.9882 15.6882 16.5002C15.3158 17.0081 15.1254 17.755 15.1169 18.741V19.5598C15.1169 20.5585 15.2947 21.3202 15.6501 21.845C16.0098 22.3697 16.5346 22.6321 17.2244 22.6321C17.8549 22.6321 18.3289 22.4903 18.6462 22.2068C18.9636 21.9233 19.1646 21.4514 19.2493 20.7913H20.8489Z" fill="black"/>
<path d="M11.0715 8.96009C11.0715 11.5095 8.9949 13.5801 6.42862 13.5801C3.86234 13.5801 1.78577 11.5095 1.78577 8.96009C1.78577 6.41063 3.86234 4.34009 6.42862 4.34009C8.9949 4.34009 11.0715 6.41063 11.0715 8.96009Z" fill="#EC5242" stroke="white"/>
<ellipse cx="24.4286" cy="7.68" rx="2.57143" ry="2.56" fill="black"/>
</svg>
