<svg width="768" height="901" viewBox="0 0 768 901" fill="none" xmlns="http://www.w3.org/2000/svg">
<rect width="768" height="900" fill="#F9F9F9" fill-opacity="0.5"/>
<path fill-rule="evenodd" clip-rule="evenodd" d="M124.076 43.031C124.359 41.7993 124.703 40.5799 125.109 39.3778L154.861 14.0229C156.113 13.8133 157.371 13.6668 158.632 13.583L124.076 43.031ZM123.2 54.2886C123.26 55.1392 123.348 55.9886 123.465 56.8353L172.359 15.1693C171.541 14.9194 170.717 14.6973 169.886 14.5033L123.2 54.2886ZM126.569 67.4738C126.26 66.8015 125.972 66.1224 125.705 65.4377L180.497 18.7448C181.131 19.1174 181.755 19.5097 182.37 19.9215L126.569 67.4738ZM130.728 74.441C131.148 75.0003 131.586 75.5513 132.042 76.0932L190.012 26.6921C189.55 26.1561 189.075 25.6361 188.59 25.1322L130.728 74.441ZM139.581 82.953C138.988 82.544 138.404 82.1165 137.831 81.6707L194.601 33.2925C194.95 33.929 195.28 34.573 195.59 35.2234L139.581 82.953ZM147.168 86.9984C147.924 87.2969 148.688 87.5706 149.459 87.8193L198.828 45.7482C198.704 44.9476 198.555 44.1497 198.381 43.3559L147.168 86.9984ZM162.924 89.6274C161.837 89.6763 160.749 89.6786 159.663 89.6348L199.002 56.1106C198.873 57.1898 198.698 58.2639 198.477 59.3296L162.924 89.6274ZM185.721 80.7114C185.777 80.6638 185.834 80.616 185.89 80.5679C185.946 80.5199 186.003 80.4718 186.059 80.4235L185.721 80.7114Z" fill="black" fill-opacity="0.5"/>
<path fill-rule="evenodd" clip-rule="evenodd" d="M113.931 798.061C115.847 798.363 117.745 798.794 119.611 799.356L149.098 831.738C149.483 833.648 149.736 835.578 149.857 837.514L113.931 798.061ZM102.844 797.768C101.52 797.905 100.199 798.104 98.8886 798.366L148.149 852.462C148.531 851.182 148.853 849.886 149.113 848.58L102.844 797.768ZM87.3175 802.483C88.3465 801.938 89.3925 801.438 90.4525 800.983L144.755 860.617C144.203 861.63 143.608 862.625 142.969 863.598L87.3175 802.483ZM80.5557 806.94C79.8734 807.489 79.2035 808.062 78.5472 808.66C78.3784 808.813 78.2111 808.968 78.0453 809.124L135.491 872.21C135.662 872.059 135.831 871.907 136 871.753C136.657 871.156 137.29 870.542 137.9 869.914L80.5557 806.94ZM70.8202 818.014C71.4121 817.043 72.0461 816.09 72.722 815.16L128.984 876.946C127.995 877.532 126.988 878.075 125.965 878.573L70.8202 818.014ZM67.1002 825.811C66.6653 827.028 66.287 828.261 65.9656 829.507L114.069 882.333C115.339 882.13 116.603 881.868 117.855 881.549L67.1002 825.811ZM64.8916 845.151C64.6894 843.406 64.5952 841.651 64.6082 839.899L103.596 882.714C101.85 882.564 100.112 882.306 98.393 881.942L64.8916 845.151ZM75.5819 868.773C75.6301 868.827 75.6783 868.88 75.7268 868.933C75.7753 868.986 75.8238 869.039 75.8725 869.092L75.5819 868.773Z" fill="#EC5242" fill-opacity="0.5"/>
<path d="M76.25 518.415C76.25 517.009 77.134 515.362 78.7412 515.362C80.308 515.362 81.2322 517.009 81.2322 518.415C81.2322 519.862 80.308 521.469 78.7412 521.469C77.134 521.469 76.25 519.862 76.25 518.415ZM119 540.915C119 545.978 117.393 555.299 113.897 559.156C110.683 562.652 101.603 567.754 96.9018 569.08L96.741 569.121V573.701C96.741 575.991 94.9731 578 92.6428 578C91.2365 578 89.9106 577.196 89.1874 575.991C88.4242 577.196 87.0982 578 85.692 578C84.2857 578 82.9598 577.196 82.1963 575.991C81.4732 577.196 80.1473 578 78.7412 578C77.2947 578 76.009 577.196 75.2455 575.991C74.5223 577.196 73.1965 578 71.7902 578C69.1385 578 67.6518 575.79 67.6518 573.379C65.3615 575.107 62.6293 576.112 59.6965 576.112C56.6027 576.112 53.5893 574.946 51.2188 572.897C52.6651 572.857 54.1115 572.576 55.4776 572.094C52.5446 571.29 49.933 569.442 48.1651 566.991C51.1702 567.644 54.6632 567.226 57.6071 565.424C54.5133 562.33 49.6518 557.147 47.9641 553.129C47.1607 551.241 47 548.71 47 546.701C47 539.71 49.8527 524.201 59.134 524.201C60.6205 524.201 61.7857 524.884 62.3885 526.29C62.9059 525.533 63.4694 524.809 64.076 524.121C64.3572 523.759 64.8795 523.357 65.0804 522.955C66.2053 521.188 66.7277 519.982 68.134 518.174C72.674 512.388 79.625 508.411 87.0982 508.411C87.942 508.411 88.7857 508.451 89.5893 508.571C91.116 506.924 93.2455 506 95.4554 506C97.5045 506 99.634 506.844 101.08 508.29C101.201 508.411 101.281 508.612 101.281 508.772C101.281 509.295 99.8349 510.661 99.4732 511.062C100.076 511.263 101.683 512.027 101.683 512.75C101.683 513.152 101.281 513.473 101.04 513.754C105.46 517.652 107.991 523.196 108.955 528.942C109.558 528.219 110.402 527.737 111.366 527.737C112.853 527.737 114.299 528.741 115.384 529.705C118.317 532.317 119 537.179 119 540.915ZM73.4375 518.576C73.4375 521.147 75.2053 523.799 77.9777 523.799C80.75 523.799 82.5178 521.147 82.5178 518.576C82.5178 516.045 80.75 513.393 77.9777 513.393C75.2053 513.393 73.4375 516.045 73.4375 518.576ZM80.4285 533.281C80.4285 530.509 80.9508 527.777 81.6338 525.085C74.3158 536.269 79.731 551.04 91.317 551.04C94.3303 551.04 97.3035 549.955 99.7545 548.228C100.036 547.183 100.277 546.138 100.277 545.053C100.277 543.044 99.3928 542.04 97.3838 542.04C96.741 542.04 96.0981 542.161 95.4954 542.281C86.5878 544.063 80.4285 542.797 80.4285 533.281V533.281ZM74.6429 569.121C74.6429 567.554 73.3973 566.188 71.7902 566.188C70.183 566.188 68.9777 567.554 68.9777 569.121V573.701C68.9777 575.268 70.183 576.674 71.7902 576.674C73.3973 576.674 74.6429 575.308 74.6429 573.701V569.121V569.121ZM81.5537 569.121C81.5537 567.554 80.3482 566.188 78.7412 566.188C77.134 566.188 75.8885 567.554 75.8885 569.121V573.701C75.8885 575.268 77.134 576.674 78.7412 576.674C80.3482 576.674 81.5537 575.268 81.5537 573.701V569.121V569.121ZM88.5446 569.121C88.5446 567.554 87.299 566.188 85.692 566.188C84.0848 566.188 82.8393 567.554 82.8393 569.121V573.701C82.8393 575.268 84.0848 576.674 85.692 576.674C87.299 576.674 88.5446 575.308 88.5446 573.701V569.121V569.121ZM95.5357 569.121C95.5357 567.554 94.2902 566.188 92.683 566.188C91.076 566.188 89.8303 567.554 89.8303 569.121V573.701C89.8303 575.268 91.076 576.674 92.683 576.674C94.2902 576.674 95.5357 575.268 95.5357 573.701V569.121V569.121ZM106.304 546.219C101.964 554.536 93.6072 560.643 84.0045 560.643C70.4242 560.643 61.4242 548.75 61.4242 535.812C61.4242 533.442 61.7054 531.112 62.2679 528.821C59.4554 533.563 58.0894 539.027 58.0894 544.491C58.0894 552.969 61.5849 561.607 68.1341 567.112C68.8573 565.746 70.2234 564.821 71.7904 564.821C73.1966 564.821 74.5224 565.625 75.2457 566.83C76.0091 565.625 77.2947 564.821 78.7413 564.821C80.1476 564.821 81.4734 565.625 82.1966 566.83C82.9601 565.625 84.2859 564.821 85.6923 564.821C87.0985 564.821 88.4243 565.625 89.1878 566.83C89.911 565.625 91.2368 564.821 92.6432 564.821C94.17 564.821 95.5762 565.746 96.2592 567.071C102.366 561.969 105.902 554.134 106.304 546.219V546.219ZM107.79 532.196C107.79 524.643 102.929 517.33 94.7723 517.33C90.5135 517.33 86.5357 519.46 83.683 522.513C80.8712 531.849 79.8233 541.719 89.509 541.719C93.5597 541.719 103.2 537.706 101.362 546.902C105.42 543.246 107.79 537.661 107.79 532.196V532.196Z" fill="#B6B3B3"/>
<path d="M413.25 840.415C413.25 839.009 414.134 837.362 415.741 837.362C417.308 837.362 418.232 839.009 418.232 840.415C418.232 841.862 417.308 843.469 415.741 843.469C414.134 843.469 413.25 841.862 413.25 840.415ZM456 862.915C456 867.978 454.393 877.299 450.897 881.156C447.683 884.652 438.603 889.754 433.902 891.08L433.741 891.121V895.701C433.741 897.991 431.973 900 429.643 900C428.237 900 426.911 899.196 426.187 897.991C425.424 899.196 424.098 900 422.692 900C421.286 900 419.96 899.196 419.196 897.991C418.473 899.196 417.147 900 415.741 900C414.295 900 413.009 899.196 412.246 897.991C411.522 899.196 410.196 900 408.79 900C406.138 900 404.652 897.79 404.652 895.379C402.362 897.107 399.629 898.112 396.696 898.112C393.603 898.112 390.589 896.946 388.219 894.897C389.665 894.857 391.112 894.576 392.478 894.094C389.545 893.29 386.933 891.442 385.165 888.991C388.17 889.644 391.663 889.226 394.607 887.424C391.513 884.33 386.652 879.147 384.964 875.129C384.161 873.241 384 870.71 384 868.701C384 861.71 386.853 846.201 396.134 846.201C397.621 846.201 398.786 846.884 399.388 848.29C399.906 847.533 400.469 846.809 401.076 846.121C401.357 845.759 401.879 845.357 402.08 844.955C403.205 843.188 403.728 841.982 405.134 840.174C409.674 834.388 416.625 830.411 424.098 830.411C424.942 830.411 425.786 830.451 426.589 830.571C428.116 828.924 430.246 828 432.455 828C434.504 828 436.634 828.844 438.08 830.29C438.201 830.411 438.281 830.612 438.281 830.772C438.281 831.295 436.835 832.661 436.473 833.062C437.076 833.263 438.683 834.027 438.683 834.75C438.683 835.152 438.281 835.473 438.04 835.754C442.46 839.652 444.991 845.196 445.955 850.942C446.558 850.219 447.402 849.737 448.366 849.737C449.853 849.737 451.299 850.741 452.384 851.705C455.317 854.317 456 859.179 456 862.915ZM410.438 840.576C410.438 843.147 412.205 845.799 414.978 845.799C417.75 845.799 419.518 843.147 419.518 840.576C419.518 838.045 417.75 835.393 414.978 835.393C412.205 835.393 410.438 838.045 410.438 840.576ZM417.429 855.281C417.429 852.509 417.951 849.777 418.634 847.085C411.316 858.269 416.731 873.04 428.317 873.04C431.33 873.04 434.304 871.955 436.754 870.228C437.036 869.183 437.277 868.138 437.277 867.053C437.277 865.044 436.393 864.04 434.384 864.04C433.741 864.04 433.098 864.161 432.495 864.281C423.588 866.063 417.429 864.797 417.429 855.281V855.281ZM411.643 891.121C411.643 889.554 410.397 888.188 408.79 888.188C407.183 888.188 405.978 889.554 405.978 891.121V895.701C405.978 897.268 407.183 898.674 408.79 898.674C410.397 898.674 411.643 897.308 411.643 895.701V891.121V891.121ZM418.554 891.121C418.554 889.554 417.348 888.188 415.741 888.188C414.134 888.188 412.888 889.554 412.888 891.121V895.701C412.888 897.268 414.134 898.674 415.741 898.674C417.348 898.674 418.554 897.268 418.554 895.701V891.121V891.121ZM425.545 891.121C425.545 889.554 424.299 888.188 422.692 888.188C421.085 888.188 419.839 889.554 419.839 891.121V895.701C419.839 897.268 421.085 898.674 422.692 898.674C424.299 898.674 425.545 897.308 425.545 895.701V891.121V891.121ZM432.536 891.121C432.536 889.554 431.29 888.188 429.683 888.188C428.076 888.188 426.83 889.554 426.83 891.121V895.701C426.83 897.268 428.076 898.674 429.683 898.674C431.29 898.674 432.536 897.268 432.536 895.701V891.121V891.121ZM443.304 868.219C438.964 876.536 430.607 882.643 421.004 882.643C407.424 882.643 398.424 870.75 398.424 857.812C398.424 855.442 398.705 853.112 399.268 850.821C396.455 855.563 395.089 861.027 395.089 866.491C395.089 874.969 398.585 883.607 405.134 889.112C405.857 887.746 407.223 886.821 408.79 886.821C410.197 886.821 411.522 887.625 412.246 888.83C413.009 887.625 414.295 886.821 415.741 886.821C417.148 886.821 418.473 887.625 419.197 888.83C419.96 887.625 421.286 886.821 422.692 886.821C424.099 886.821 425.424 887.625 426.188 888.83C426.911 887.625 428.237 886.821 429.643 886.821C431.17 886.821 432.576 887.746 433.259 889.071C439.366 883.969 442.902 876.134 443.304 868.219V868.219ZM444.79 854.196C444.79 846.643 439.929 839.33 431.772 839.33C427.513 839.33 423.536 841.46 420.683 844.513C417.871 853.849 416.823 863.719 426.509 863.719C430.56 863.719 440.2 859.706 438.362 868.902C442.42 865.246 444.79 859.661 444.79 854.196V854.196Z" fill="#EC5242" fill-opacity="0.5"/>
<path d="M665.786 785.771C664.819 788.019 660.732 789.67 653.288 790.822C652.905 791.337 652.587 793.538 652.08 795.252C651.779 796.281 651.037 796.891 649.83 796.891L649.775 796.891C648.032 796.891 646.212 796.091 642.566 796.091C637.645 796.091 635.949 797.209 632.128 799.898C628.077 802.752 624.192 805.216 618.393 804.964C612.521 805.396 607.626 801.838 604.872 799.897C601.028 797.19 599.337 796.091 594.437 796.091C590.936 796.091 588.734 796.964 587.228 796.964C585.73 796.964 585.147 796.054 584.923 795.293C584.421 793.594 584.106 791.361 583.713 790.831C579.876 790.238 571.223 788.733 571.003 784.886C570.976 784.403 571.13 783.927 571.434 783.549C571.738 783.171 572.171 782.919 572.65 782.84C585.561 780.722 591.376 767.511 591.618 766.95C591.632 766.918 591.647 766.887 591.662 766.855C592.351 765.462 592.505 764.294 592.119 763.388C591.182 761.188 587.133 760.399 585.429 759.727C581.029 757.996 580.417 756.006 580.677 754.642C581.129 752.269 584.708 750.808 586.801 751.785C588.455 752.558 589.926 752.949 591.17 752.949C592.101 752.949 592.693 752.726 593.018 752.548C592.639 745.903 591.7 736.408 594.073 731.105C600.339 717.104 613.621 716.016 617.54 716.016C617.715 716.016 619.236 716 619.416 716C629.092 716 638.389 720.952 642.929 731.096C645.3 736.393 644.367 745.85 643.986 752.546C644.279 752.707 644.794 752.905 645.581 752.942C646.768 752.889 648.145 752.5 649.676 751.785C650.805 751.258 652.349 751.33 653.476 751.795L653.481 751.797C655.24 752.423 656.346 753.686 656.374 755.101C656.408 756.904 654.793 758.46 651.572 759.727C651.179 759.882 650.701 760.033 650.193 760.194C648.375 760.768 645.629 761.637 644.883 763.388C644.498 764.294 644.65 765.46 645.34 766.854C645.356 766.885 645.371 766.917 645.384 766.949C645.626 767.51 651.436 780.717 664.353 782.839C665.545 783.034 666.424 784.295 665.786 785.771V785.771Z" fill="#B6B3B3" fill-opacity="0.5"/>
<path d="M602.48 300.195C603.252 300.964 604.502 300.964 605.274 300.195L606.67 298.804C607.441 298.035 607.441 296.788 606.67 296.019L602.261 291.625L606.668 287.23C607.44 286.461 607.44 285.214 606.668 284.445L605.272 283.054C604.501 282.285 603.251 282.285 602.479 283.054L595.278 290.232C594.506 291.001 594.506 292.248 595.278 293.017L602.48 300.195V300.195ZM614.332 298.805L615.728 300.196C616.499 300.965 617.749 300.965 618.521 300.196L625.722 293.018C626.494 292.249 626.494 291.002 625.722 290.233L618.521 283.055C617.749 282.286 616.499 282.286 615.728 283.055L614.332 284.446C613.56 285.215 613.56 286.462 614.332 287.231L618.739 291.625L614.332 296.02C613.56 296.789 613.56 298.036 614.332 298.805V298.805ZM648.025 319.188H618.096C618.005 321.625 616.281 323.125 614.055 323.125H606.55C604.243 323.125 602.474 320.975 602.505 319.188H572.975C571.889 319.188 571 320.073 571 321.156V323.125C571 327.456 574.555 331 578.9 331H642.1C646.445 331 650 327.456 650 323.125V321.156C650 320.073 649.111 319.188 648.025 319.188ZM642.1 273.906C642.1 270.658 639.434 268 636.175 268H584.825C581.566 268 578.9 270.658 578.9 273.906V315.25H642.1V273.906ZM634.2 307.375H586.8V275.875H634.2V307.375Z" fill="#EC5242" fill-opacity="0.5"/>
</svg>
