<svg width="2847" height="1100" viewBox="0 0 2847 1100" fill="none" xmlns="http://www.w3.org/2000/svg">
<circle cx="416" cy="165" r="155" fill="#D3D3D3" stroke="white" stroke-width="20"/>
<circle cx="414.5" cy="685.5" r="398" stroke="white" stroke-width="33"/>
<path d="M401.07 729.422C398.206 759.76 387.008 783.458 367.477 800.516C347.945 817.443 321.969 825.906 289.547 825.906C266.891 825.906 246.904 820.568 229.586 809.891C212.398 799.083 199.117 783.784 189.742 763.992C180.367 744.201 175.484 721.219 175.094 695.047V668.484C175.094 641.661 179.846 618.029 189.352 597.586C198.857 577.143 212.464 561.388 230.172 550.32C248.01 539.253 268.583 533.719 291.891 533.719C323.271 533.719 348.531 542.247 367.672 559.305C386.812 576.362 397.945 600.451 401.07 631.57H351.852C349.508 611.128 343.518 596.414 333.883 587.43C324.378 578.315 310.38 573.758 291.891 573.758C270.406 573.758 253.87 581.635 242.281 597.391C230.823 613.016 224.964 635.997 224.703 666.336V691.531C224.703 722.26 230.172 745.698 241.109 761.844C252.177 777.99 268.323 786.062 289.547 786.062C308.948 786.062 323.531 781.701 333.297 772.977C343.062 764.253 349.247 749.734 351.852 729.422H401.07ZM662.398 729.422C659.534 759.76 648.336 783.458 628.805 800.516C609.273 817.443 583.297 825.906 550.875 825.906C528.219 825.906 508.232 820.568 490.914 809.891C473.727 799.083 460.445 783.784 451.07 763.992C441.695 744.201 436.812 721.219 436.422 695.047V668.484C436.422 641.661 441.174 618.029 450.68 597.586C460.185 577.143 473.792 561.388 491.5 550.32C509.339 539.253 529.911 533.719 553.219 533.719C584.599 533.719 609.859 542.247 629 559.305C648.141 576.362 659.273 600.451 662.398 631.57H613.18C610.836 611.128 604.846 596.414 595.211 587.43C585.706 578.315 571.708 573.758 553.219 573.758C531.734 573.758 515.198 581.635 503.609 597.391C492.151 613.016 486.292 635.997 486.031 666.336V691.531C486.031 722.26 491.5 745.698 502.438 761.844C513.505 777.99 529.651 786.062 550.875 786.062C570.276 786.062 584.859 781.701 594.625 772.977C604.391 764.253 610.576 749.734 613.18 729.422H662.398Z" fill="white"/>
<path d="M1142.25 790.7C1144.95 790.7 1147.28 791.75 1149.23 793.85L1168.13 814.55C1154.93 830.15 1138.8 842.225 1119.75 850.775C1100.85 859.325 1078.05 863.6 1051.35 863.6C1027.95 863.6 1006.73 859.55 987.68 851.45C968.78 843.35 952.58 832.025 939.08 817.475C925.73 802.925 915.38 785.525 908.03 765.275C900.68 745.025 897.005 722.75 897.005 698.45C897.005 674.15 900.83 651.875 908.48 631.625C916.28 611.375 927.155 593.975 941.105 579.425C955.055 564.875 971.705 553.55 991.055 545.45C1010.55 537.35 1032.08 533.3 1055.63 533.3C1078.58 533.3 1098.98 537.05 1116.83 544.55C1134.68 552.05 1150.2 562.025 1163.4 574.475L1147.65 596.75C1146.6 598.4 1145.25 599.75 1143.6 600.8C1142.1 601.85 1140.08 602.375 1137.53 602.375C1134.68 602.375 1131.3 600.95 1127.4 598.1C1123.65 595.25 1118.63 592.1 1112.33 588.65C1106.18 585.05 1098.53 581.825 1089.38 578.975C1080.23 576.125 1068.83 574.7 1055.18 574.7C1039.13 574.7 1024.43 577.55 1011.08 583.25C997.73 588.8 986.18 596.9 976.43 607.55C966.83 618.05 959.33 631.025 953.93 646.475C948.68 661.775 946.055 679.1 946.055 698.45C946.055 718.1 948.83 735.575 954.38 750.875C959.93 766.175 967.58 779.15 977.33 789.8C987.08 800.45 998.555 808.55 1011.75 814.1C1024.95 819.65 1039.2 822.425 1054.5 822.425C1063.8 822.425 1072.13 821.9 1079.48 820.85C1086.98 819.65 1093.8 817.925 1099.95 815.675C1106.25 813.425 1112.18 810.575 1117.73 807.125C1123.28 803.525 1128.75 799.25 1134.15 794.3C1135.35 793.25 1136.63 792.425 1137.98 791.825C1139.33 791.075 1140.75 790.7 1142.25 790.7ZM1300.32 627.8C1317.12 627.8 1332.27 630.575 1345.77 636.125C1359.42 641.525 1370.97 649.4 1380.42 659.75C1390.02 669.95 1397.37 682.325 1402.47 696.875C1407.57 711.275 1410.12 727.475 1410.12 745.475C1410.12 763.475 1407.57 779.75 1402.47 794.3C1397.37 808.85 1390.02 821.225 1380.42 831.425C1370.97 841.625 1359.42 849.5 1345.77 855.05C1332.27 860.45 1317.12 863.15 1300.32 863.15C1283.37 863.15 1268.07 860.45 1254.42 855.05C1240.92 849.5 1229.37 841.625 1219.77 831.425C1210.17 821.225 1202.74 808.85 1197.49 794.3C1192.39 779.75 1189.84 763.475 1189.84 745.475C1189.84 727.475 1192.39 711.275 1197.49 696.875C1202.74 682.325 1210.17 669.95 1219.77 659.75C1229.37 649.4 1240.92 641.525 1254.42 636.125C1268.07 630.575 1283.37 627.8 1300.32 627.8ZM1300.32 828.95C1321.92 828.95 1338.04 821.675 1348.69 807.125C1359.34 792.575 1364.67 772.1 1364.67 745.7C1364.67 719.3 1359.34 698.825 1348.69 684.275C1338.04 669.575 1321.92 662.225 1300.32 662.225C1278.42 662.225 1262.07 669.575 1251.27 684.275C1240.62 698.825 1235.29 719.3 1235.29 745.7C1235.29 772.1 1240.62 792.575 1251.27 807.125C1262.07 821.675 1278.42 828.95 1300.32 828.95ZM1606.47 686.75C1599.27 677.3 1591.47 670.7 1583.07 666.95C1574.82 663.2 1565.52 661.325 1555.17 661.325C1535.07 661.325 1519.47 668.6 1508.37 683.15C1497.42 697.55 1491.94 718.625 1491.94 746.375C1491.94 760.925 1493.14 773.375 1495.54 783.725C1498.09 793.925 1501.69 802.325 1506.34 808.925C1511.14 815.375 1516.99 820.175 1523.89 823.325C1530.79 826.325 1538.59 827.825 1547.29 827.825C1560.04 827.825 1571.07 824.975 1580.37 819.275C1589.67 813.575 1598.37 805.55 1606.47 795.2V686.75ZM1650.57 527.9V860H1624.02C1617.87 860 1614.04 857.075 1612.54 851.225L1608.72 824.9C1598.97 836.45 1587.87 845.75 1575.42 852.8C1563.12 859.7 1548.87 863.15 1532.67 863.15C1519.62 863.15 1507.77 860.6 1497.12 855.5C1486.62 850.4 1477.62 842.975 1470.12 833.225C1462.62 823.325 1456.84 811.1 1452.79 796.55C1448.74 782 1446.72 765.275 1446.72 746.375C1446.72 729.425 1448.97 713.675 1453.47 699.125C1457.97 684.575 1464.49 671.975 1473.04 661.325C1481.59 650.675 1491.94 642.35 1504.09 636.35C1516.24 630.2 1529.97 627.125 1545.27 627.125C1559.07 627.125 1570.77 629.375 1580.37 633.875C1590.12 638.375 1598.82 644.75 1606.47 653V527.9H1650.57ZM1863.2 720.275C1863.2 711.575 1861.93 703.55 1859.38 696.2C1856.98 688.85 1853.38 682.475 1848.58 677.075C1843.78 671.675 1837.93 667.475 1831.03 664.475C1824.13 661.475 1816.18 659.975 1807.18 659.975C1788.73 659.975 1774.18 665.3 1763.53 675.95C1753.03 686.6 1746.35 701.375 1743.5 720.275H1863.2ZM1899.43 827.375C1894.03 833.675 1887.8 839.15 1880.75 843.8C1873.7 848.3 1866.2 851.975 1858.25 854.825C1850.3 857.675 1842.05 859.775 1833.5 861.125C1825.1 862.475 1816.78 863.15 1808.53 863.15C1792.78 863.15 1778.15 860.525 1764.65 855.275C1751.3 849.875 1739.68 842.075 1729.78 831.875C1720.03 821.525 1712.38 808.775 1706.83 793.625C1701.43 778.325 1698.73 760.775 1698.73 740.975C1698.73 725.075 1701.2 710.3 1706.15 696.65C1711.1 682.85 1718.15 670.85 1727.3 660.65C1736.6 650.45 1747.93 642.425 1761.28 636.575C1774.63 630.725 1789.63 627.8 1806.28 627.8C1820.23 627.8 1833.05 630.125 1844.75 634.775C1856.6 639.275 1866.8 645.875 1875.35 654.575C1883.9 663.275 1890.58 674 1895.38 686.75C1900.33 699.5 1902.8 714.05 1902.8 730.4C1902.8 737.15 1902.05 741.725 1900.55 744.125C1899.05 746.375 1896.28 747.5 1892.23 747.5H1742.38C1742.83 761.15 1744.78 773.075 1748.23 783.275C1751.68 793.325 1756.4 801.725 1762.4 808.475C1768.55 815.225 1775.83 820.25 1784.23 823.55C1792.63 826.85 1802 828.5 1812.35 828.5C1822.1 828.5 1830.5 827.375 1837.55 825.125C1844.75 822.875 1850.9 820.475 1856 817.925C1861.25 815.225 1865.6 812.75 1869.05 810.5C1872.65 808.25 1875.8 807.125 1878.5 807.125C1882.1 807.125 1884.88 808.475 1886.83 811.175L1899.43 827.375ZM2183.32 790.7C2186.02 790.7 2188.34 791.75 2190.29 793.85L2209.19 814.55C2195.99 830.15 2179.87 842.225 2160.82 850.775C2141.92 859.325 2119.12 863.6 2092.42 863.6C2069.02 863.6 2047.79 859.55 2028.74 851.45C2009.84 843.35 1993.64 832.025 1980.14 817.475C1966.79 802.925 1956.44 785.525 1949.09 765.275C1941.74 745.025 1938.07 722.75 1938.07 698.45C1938.07 674.15 1941.89 651.875 1949.54 631.625C1957.34 611.375 1968.22 593.975 1982.17 579.425C1996.12 564.875 2012.77 553.55 2032.12 545.45C2051.62 537.35 2073.14 533.3 2096.69 533.3C2119.64 533.3 2140.04 537.05 2157.89 544.55C2175.74 552.05 2191.27 562.025 2204.47 574.475L2188.72 596.75C2187.67 598.4 2186.32 599.75 2184.67 600.8C2183.17 601.85 2181.14 602.375 2178.59 602.375C2175.74 602.375 2172.37 600.95 2168.47 598.1C2164.72 595.25 2159.69 592.1 2153.39 588.65C2147.24 585.05 2139.59 581.825 2130.44 578.975C2121.29 576.125 2109.89 574.7 2096.24 574.7C2080.19 574.7 2065.49 577.55 2052.14 583.25C2038.79 588.8 2027.24 596.9 2017.49 607.55C2007.89 618.05 2000.39 631.025 1994.99 646.475C1989.74 661.775 1987.12 679.1 1987.12 698.45C1987.12 718.1 1989.89 735.575 1995.44 750.875C2000.99 766.175 2008.64 779.15 2018.39 789.8C2028.14 800.45 2039.62 808.55 2052.82 814.1C2066.02 819.65 2080.27 822.425 2095.57 822.425C2104.87 822.425 2113.19 821.9 2120.54 820.85C2128.04 819.65 2134.87 817.925 2141.02 815.675C2147.32 813.425 2153.24 810.575 2158.79 807.125C2164.34 803.525 2169.82 799.25 2175.22 794.3C2176.42 793.25 2177.69 792.425 2179.04 791.825C2180.39 791.075 2181.82 790.7 2183.32 790.7ZM2293.35 527.9V860H2249.25V527.9H2293.35ZM2546.14 631.4V860H2519.82C2513.82 860 2509.92 857.075 2508.12 851.225L2504.97 828.275C2500.02 833.525 2494.84 838.325 2489.44 842.675C2484.04 847.025 2478.27 850.775 2472.12 853.925C2465.97 856.925 2459.44 859.25 2452.54 860.9C2445.64 862.7 2438.22 863.6 2430.27 863.6C2417.67 863.6 2406.57 861.5 2396.97 857.3C2387.52 853.1 2379.57 847.25 2373.12 839.75C2366.67 832.1 2361.79 822.95 2358.49 812.3C2355.19 801.65 2353.54 789.875 2353.54 776.975V631.4H2397.64V776.975C2397.64 793.325 2401.39 806.075 2408.89 815.225C2416.39 824.225 2427.87 828.725 2443.32 828.725C2454.57 828.725 2465.07 826.1 2474.82 820.85C2484.57 815.45 2493.72 808.1 2502.27 798.8V631.4H2546.14ZM2651.26 803.75C2658.46 813.2 2666.26 819.8 2674.66 823.55C2683.06 827.3 2692.21 829.175 2702.11 829.175C2722.51 829.175 2738.18 821.9 2749.13 807.35C2760.23 792.8 2765.78 770.825 2765.78 741.425C2765.78 714.275 2760.91 694.4 2751.16 681.8C2741.41 669.05 2727.61 662.675 2709.76 662.675C2697.16 662.675 2686.21 665.525 2676.91 671.225C2667.76 676.925 2659.21 685.025 2651.26 695.525V803.75ZM2651.26 662.9C2660.71 652.4 2671.43 643.925 2683.43 637.475C2695.43 631.025 2709.08 627.8 2724.38 627.8C2737.73 627.8 2749.73 630.425 2760.38 635.675C2771.18 640.775 2780.33 648.2 2787.83 657.95C2795.33 667.55 2801.11 679.25 2805.16 693.05C2809.21 706.85 2811.23 722.45 2811.23 739.85C2811.23 758.3 2808.91 775.1 2804.26 790.25C2799.76 805.4 2793.23 818.375 2784.68 829.175C2776.28 839.975 2766.01 848.375 2753.86 854.375C2741.71 860.225 2728.06 863.15 2712.91 863.15C2705.56 863.15 2698.81 862.4 2692.66 860.9C2686.51 859.55 2680.81 857.525 2675.56 854.825C2670.46 852.125 2665.73 848.825 2661.38 844.925C2657.03 841.025 2652.91 836.6 2649.01 831.65L2646.98 850.775C2645.78 856.925 2642.03 860 2635.73 860H2607.38V527.9H2651.26V662.9Z" fill="white"/>
<circle cx="251" cy="286" r="155" fill="#EC5242" stroke="white" stroke-width="20"/>
<circle cx="877.5" cy="200.5" r="85.5" fill="white"/>
</svg>
